# xmcd
#
# Track frame offsets:
#	150
#	13025
#	29645
#	54052
#	74530
#	94966
#	116747
#	136256
#	154570
#	174892
#	193586
#	205443
#	223371
#	244376
#	253661
#	269671
#
# Disc length: 3707 seconds
#
# Revision: 0
# Processed by: cddbd v1.5.2PL0 Copyright (c) Steve Scherf et al.
# Submitted via: audiograbber 1.83.01
#
DISCID=f40e7910
DTITLE=Todd Snider - Time As We Know It: The Songs Of Jerry Jeff Walker
DYEAR=2012
DGENRE=Alt-Country
TTITLE0=Vince Triple-O Martin
TTITLE1=Jaded Lover
TTITLE2=Moon Child
TTITLE3=Takin' It As It Comes
TTITLE4=Derby Day
TTITLE5=Sangria Wine
TTITLE6=Continuing Saga Of The Classic Bummer Or Is This My One Way Ticket To C
TTITLE6=leveland?
TTITLE7=Little Bird
TTITLE8=Hill Country Rain
TTITLE9=Railroad Lady
TTITLE10=Laying My Life On The Line
TTITLE11=Pissin' In The Wind
TTITLE12=Mr. Bojangles
TTITLE13=Will There Be Any
TTITLE14=We Were Kind Of Crazy Then
TTITLE15=Old Road
EXTD=
EXTT0=
EXTT1=
EXTT2=
EXTT3=
EXTT4=
EXTT5=
EXTT6=
EXTT7=
EXTT8=
EXTT9=
EXTT10=
EXTT11=
EXTT12=
EXTT13=
EXTT14=
EXTT15=
PLAYORDER=
